<svg xmlns="http://www.w3.org/2000/svg" width="730" height="730" viewBox="0 0 730 730" version="1.1">
	<path d="M 209 222.626 C 207.625 222.820, 202.675 223.466, 198 224.062 C 190.126 225.065, 174.154 228.915, 169.500 230.932 C 168.400 231.408, 165.925 232.371, 164 233.071 C 156.949 235.635, 142.968 243.074, 134.841 248.584 C 80.945 285.130, 54.913 348.212, 67.516 411.729 C 71.394 431.275, 80.374 452.532, 91.920 469.500 C 99.620 480.816, 112.699 495.057, 121.996 502.248 C 125.019 504.587, 128.248 507.175, 129.172 508 C 133.599 511.955, 153.624 523.084, 163 526.800 C 193.409 538.855, 223.251 541.470, 255.500 534.907 C 279.093 530.106, 301.229 519.579, 320.827 503.841 C 328.047 498.043, 331.297 494.907, 341.390 484 C 349.889 474.816, 352.541 470.099, 347.250 473.578 C 343.677 475.928, 327.641 484.082, 322.500 486.163 C 312.015 490.408, 299.433 493.270, 283.321 495.076 C 262.235 497.439, 236.972 493.241, 215 483.723 C 184.959 470.709, 160.128 447.588, 146.258 419.716 C 125.959 378.922, 126.326 335.265, 147.308 295 C 150.031 289.775, 152.548 285.275, 152.902 285 C 153.256 284.725, 154.401 283.150, 155.445 281.500 C 160.158 274.052, 172.940 260.309, 181.500 253.486 C 184.250 251.294, 186.725 249.245, 187 248.934 C 188.297 247.466, 197.328 241.818, 205.012 237.670 C 213.199 233.251, 223.797 229.127, 236.500 225.416 L 242.500 223.663 238.500 222.889 C 234.551 222.125, 213.849 221.940, 209 222.626 M 234.500 297.933 C 205.387 302.708, 191.062 319.400, 190.881 348.758 C 190.777 365.775, 194.591 377.204, 203.634 386.971 C 212.710 396.775, 227.249 402.023, 245.208 401.980 C 264.111 401.934, 277.715 397.410, 287.063 388.063 C 301.563 373.563, 305.175 344.162, 295.033 323.190 C 288.980 310.673, 280.161 303.673, 265.566 299.799 C 257.504 297.660, 241.888 296.722, 234.500 297.933 M 316.685 299.648 C 316.308 300.025, 316 322.983, 316 350.667 C 316 390.238, 316.267 401.012, 317.250 401.054 C 324.839 401.385, 345.289 400.939, 346.120 400.426 C 347.230 399.740, 346.701 360.598, 345.370 345 C 345.018 340.875, 345.047 337.793, 345.434 338.152 C 345.821 338.510, 348.144 346.562, 350.597 356.043 C 353.050 365.525, 355.272 373.631, 355.535 374.056 C 355.798 374.481, 357.155 379.255, 358.550 384.665 C 359.946 390.074, 361.600 395.937, 362.225 397.694 L 363.361 400.888 375.283 401.194 C 381.840 401.362, 387.515 401.275, 387.894 401 C 388.800 400.343, 391.783 390.368, 397.014 370.500 C 398.752 363.900, 401.225 354.900, 402.510 350.500 C 403.794 346.100, 405.140 341.043, 405.500 339.261 C 406.639 333.621, 407.688 334.851, 406.812 340.798 C 405.706 348.301, 405.059 399.212, 406.053 400.500 C 406.527 401.114, 412.840 401.385, 422.422 401.201 L 438.018 400.902 437.759 350.201 L 437.500 299.500 415.737 299.230 L 393.975 298.961 393.015 301.230 C 392.138 303.303, 384.107 333.974, 380.179 350.250 C 379.283 353.962, 378.273 357, 377.934 357 C 377.595 357, 376.767 354.413, 376.092 351.250 C 374.907 345.692, 373.124 339.176, 370.853 332.099 C 370.252 330.228, 369.148 325.953, 368.398 322.599 C 367.648 319.244, 365.986 312.675, 364.705 308 L 362.375 299.500 339.873 299.232 C 327.496 299.084, 317.062 299.272, 316.685 299.648 M 458.691 299.642 C 458.311 300.022, 458 322.961, 458 350.618 L 458 400.902 473.514 401.201 C 482.047 401.365, 489.472 401.350, 490.014 401.167 C 490.584 400.974, 491 396.066, 491 389.537 L 491 378.240 499.064 371.870 C 503.500 368.366, 507.662 365.394, 508.314 365.264 C 508.966 365.135, 513.969 373.122, 519.431 383.014 C 528.286 399.052, 529.640 401.002, 531.931 401.016 C 533.344 401.026, 541.823 401.090, 550.774 401.159 C 559.725 401.228, 567.270 401.064, 567.540 400.794 C 567.809 400.524, 565.867 396.972, 563.223 392.902 C 560.580 388.831, 555.285 380.404, 551.458 374.176 C 547.631 367.947, 541.898 358.722, 538.717 353.676 C 531.363 342.005, 531.427 342.166, 533.095 339.512 C 534.792 336.811, 541.603 328.749, 548.754 320.975 C 551.644 317.834, 555.244 313.715, 556.754 311.821 C 558.264 309.927, 561.157 306.625, 563.182 304.484 C 565.208 302.342, 566.644 300.232, 566.373 299.795 C 566.103 299.358, 557.188 299, 546.561 299 L 527.241 299 523.393 303.750 C 521.277 306.363, 519.037 308.950, 518.416 309.500 C 517.795 310.050, 514.200 314.325, 510.426 319 C 506.653 323.675, 502.803 328.330, 501.871 329.344 C 500.938 330.359, 498.448 333.378, 496.338 336.054 C 494.227 338.730, 492.172 340.938, 491.770 340.960 C 491.369 340.982, 490.919 331.663, 490.770 320.250 L 490.500 299.500 474.941 299.226 C 466.384 299.075, 459.071 299.262, 458.691 299.642 M 582.241 350.046 L 582.500 401.115 598 401.116 L 613.500 401.117 614 383.309 L 614.500 365.500 635.500 365 L 656.500 364.500 656.793 355 C 657.267 339.650, 659.443 341.086, 635.236 340.770 L 614.500 340.500 614.500 332.500 L 614.500 324.500 639 324 L 663.500 323.500 663.500 311.500 L 663.500 299.500 622.741 299.239 L 581.982 298.978 582.241 350.046 M 238.393 322.791 C 233.874 324.312, 228.871 328.703, 226.758 333 C 224.854 336.874, 224.543 339.168, 224.523 349.500 C 224.502 360.328, 224.744 361.988, 227 366.493 C 228.559 369.606, 231.086 372.586, 233.713 374.406 C 237.458 377.002, 238.741 377.321, 245.275 377.279 C 256.469 377.207, 262.682 373.223, 265.828 364.101 C 266.472 362.231, 266.987 355.481, 266.972 349.101 C 266.939 335.750, 265.252 330.948, 258.743 325.680 C 255.542 323.089, 254.124 322.664, 247.783 322.393 C 243.777 322.221, 239.552 322.401, 238.393 322.791" stroke="none" fill="black" fill-rule="evenodd"/>
</svg>